HIERARCHY
ROOT Hips
{
	OFFSET 49.210400 9.968171 54.482899
	CHANNELS 6 Xposition Yposition Zposition Xrotation Yrotation Zrotation
	JOINT spine
	{
		OFFSET 0.000000 -0.342408 5.954380
		CHANNELS 3 Xrotation Yrotation Zrotation
		JOINT spine1
		{
			OFFSET 0.000000 -0.000002 8.856018
			CHANNELS 3 Xrotation Yrotation Zrotation
			JOINT spine2
			{
				OFFSET 0.000000 -0.000001 8.485672
				CHANNELS 3 Xrotation Yrotation Zrotation
				JOINT Neck
				{
					OFFSET 0.000000 -1.038704 21.786301
					CHANNELS 3 Xrotation Yrotation Zrotation
					JOINT Head
					{
						OFFSET 0.000000 -0.000001 6.582199
						CHANNELS 3 Xrotation Yrotation Zrotation
						End Site
						{
							OFFSET 0.000000 5.254357 15.932602
						}
					}
				}
				JOINT RightShoulder
				{
					OFFSET -3.573071 0.497523 9.163857
					CHANNELS 3 Xrotation Yrotation Zrotation
					JOINT RightArm
					{
						OFFSET 0.000000 -0.000002 12.019203
						CHANNELS 3 Xrotation Yrotation Zrotation
						JOINT RightArmRoll
						{
							OFFSET 0.000000 -0.000001 6.067551
							CHANNELS 3 Xrotation Yrotation Zrotation
							JOINT RightForeArm
							{
								OFFSET 0.000000 -0.000003 17.672600
								CHANNELS 3 Xrotation Yrotation Zrotation
								JOINT RightForeArmRoll
								{
									OFFSET 0.000000 -0.000001 6.808716
									CHANNELS 3 Xrotation Yrotation Zrotation
									JOINT RightHand
									{
										OFFSET 0.000000 -0.000002 13.663605
										CHANNELS 3 Xrotation Yrotation Zrotation
										End Site
										{
											OFFSET 0.000000 0.000000 0.100006
										}
									}
								}
							}
						}
					}
				}
				JOINT LeftShoulder
				{
					OFFSET 3.573071 0.497523 9.163857
					CHANNELS 3 Xrotation Yrotation Zrotation
					JOINT LeftArm
					{
						OFFSET 0.000000 -0.000002 12.019203
						CHANNELS 3 Xrotation Yrotation Zrotation
						JOINT LeftArmRoll
						{
							OFFSET 0.000000 -0.000001 6.067551
							CHANNELS 3 Xrotation Yrotation Zrotation
							JOINT LeftForeArm
							{
								OFFSET 0.000000 -0.000003 17.672600
								CHANNELS 3 Xrotation Yrotation Zrotation
								JOINT LeftForeArmRoll
								{
									OFFSET 0.000000 -0.000001 6.808716
									CHANNELS 3 Xrotation Yrotation Zrotation
									JOINT LeftHand
									{
										OFFSET 0.000000 -0.000002 13.663605
										CHANNELS 3 Xrotation Yrotation Zrotation
										End Site
										{
											OFFSET 0.000000 0.000000 0.100006
										}
									}
								}
							}
						}
					}
				}
			}
		}
	}
	JOINT RightUpLeg
	{
		OFFSET -5.277740 0.811858 -0.967796
		CHANNELS 3 Xrotation Yrotation Zrotation
		JOINT RightUpLegRoll
		{
			OFFSET 0.000000 -0.000003 16.021397
			CHANNELS 3 Xrotation Yrotation Zrotation
			JOINT RightLeg
			{
				OFFSET 0.000000 0.000004 -19.840099
				CHANNELS 3 Xrotation Yrotation Zrotation
				JOINT RightLegRoll
				{
					OFFSET 0.000000 -0.000004 19.905003
					CHANNELS 3 Xrotation Yrotation Zrotation
					JOINT RightFoot
					{
						OFFSET 0.000000 -0.000003 16.567497
						CHANNELS 3 Xrotation Yrotation Zrotation
						JOINT RightToeBase
						{
							OFFSET 0.000000 -0.000002 13.849602
							CHANNELS 3 Xrotation Yrotation Zrotation
							End Site
							{
								OFFSET 0.005871 0.773115 6.707283
							}
						}
					}
				}
			}
		}
	}
	JOINT LeftUpLeg
	{
		OFFSET 5.277740 0.811858 -0.967796
		CHANNELS 3 Xrotation Yrotation Zrotation
		JOINT LeftUpLegRoll
		{
			OFFSET 0.000000 -0.000003 16.021503
			CHANNELS 3 Xrotation Yrotation Zrotation
			JOINT LeftLeg
			{
				OFFSET 0.000000 -0.000003 19.839996
				CHANNELS 3 Xrotation Yrotation Zrotation
				JOINT LeftLegRoll
				{
					OFFSET 0.000000 -0.000004 20.089005
					CHANNELS 3 Xrotation Yrotation Zrotation
					JOINT LeftFoot
					{
						OFFSET 0.000000 -0.000002 16.383499
						CHANNELS 3 Xrotation Yrotation Zrotation
						JOINT LeftToeBase
						{
							OFFSET 0.000000 -0.000003 13.849594
							CHANNELS 3 Xrotation Yrotation Zrotation
							End Site
							{
								OFFSET -0.026310 0.773116 6.707275
							}
						}
					}
				}
			}
		}
	}
}
MOTION
Frames: 5
Frame Time: 0.041667
51.817699 -28.660732 84.623276 -7.293939 0.186565 -2.005251 -0.289205 -0.376787 0.086753 3.425006 -0.753042 0.163205 5.070136 -0.751002 0.181327 49.477429 6.447354 -2.861952 13.632334 -7.423360 -0.067895 7.381204 -72.408017 6.551430 -54.453232 -112.985706 -57.481260 0.000000 0.000024 -0.000003 -0.029176 3.652299 -1.990581 -0.000003 -0.000020 -3.011620 -5.000165 -7.999909 0.000017 -10.871300 72.589352 13.456770 -48.315884 112.555439 51.270265 -0.000001 0.000014 -0.000002 -0.023561 -3.636431 1.990875 0.000004 0.000007 3.011610 -5.000174 7.999919 -0.000006 1.591832 -176.853214 4.778055 -179.999991 0.000006 -1.150994 173.589722 -3.465251 -0.413063 0.000003 0.000002 0.059170 68.265842 6.892382 2.170102 25.456967 -7.355626 0.000004 0.434905 178.333043 -0.353726 -0.000005 -0.000005 -1.147180 -11.000984 1.781266 0.487041 0.000002 0.000002 -0.180116 70.112343 -6.866468 -2.120304 25.456948 7.355613 0.000000 
51.817699 -28.660732 84.623276 -7.280912 0.191010 -2.010216 -0.287259 -0.376851 0.086754 3.428898 -0.752729 0.163206 5.074026 -0.750692 0.181328 49.477662 6.442171 -2.867803 13.628948 -7.424604 -0.074320 7.351030 -72.407921 6.518572 -54.512392 -113.013970 -57.547165 0.000001 0.000024 -0.000004 -0.029174 3.652300 -1.990581 0.000000 -0.000020 -3.011619 -5.000166 -7.999909 0.000017 -10.841569 72.583061 13.423781 -48.352118 112.580929 51.318507 0.000001 0.000014 -0.000002 -0.023561 -3.636431 1.990875 0.000003 0.000007 3.011611 -5.000173 7.999920 -0.000005 1.585842 -176.858214 4.773536 -179.999991 0.000006 -1.150995 173.607276 -3.465369 -0.412998 0.000003 0.000002 0.059172 68.255849 6.892379 2.170125 25.456965 -7.355627 0.000006 0.415651 178.328043 -0.355285 -0.000005 -0.000004 -1.147110 -11.011493 1.782194 0.487098 0.000001 0.000002 -0.180113 70.119671 -6.866479 -2.120253 25.456943 7.355613 0.000000 
51.838299 -28.680828 84.625580 -7.267543 0.195568 -2.015380 -0.285451 -0.376933 0.086754 3.432507 -0.752409 0.163206 5.077648 -0.750373 0.181328 49.478631 6.436480 -2.873441 13.624933 -7.425467 -0.080681 7.322256 -72.408891 6.487083 -54.572351 -113.042732 -57.612980 0.000000 0.000024 -0.000003 -0.029172 3.652300 -1.990581 -0.000000 -0.000020 -3.011619 -5.000164 -7.999909 0.000018 -10.811005 72.576306 13.389874 -48.386518 112.607075 51.364788 -0.000001 0.000014 -0.000002 -0.023560 -3.636431 1.990876 0.000004 0.000007 3.011610 -5.000172 7.999920 -0.000005 1.579949 -176.862189 4.769074 -179.999991 0.000005 -1.150994 173.625799 -3.464504 -0.412780 0.000003 0.000002 0.059172 68.245433 6.892375 2.170074 25.456964 -7.355626 0.000005 0.395996 178.322046 -0.356926 -0.000004 -0.000004 -1.147040 -11.022204 1.783160 0.487129 0.000002 0.000002 -0.180102 70.127321 -6.866495 -2.120182 25.456947 7.355613 -0.000000 
51.823299 -28.655224 84.622574 -7.253914 0.200216 -2.020696 -0.283752 -0.377028 0.086753 3.435907 -0.752083 0.163206 5.081047 -0.750048 0.181329 49.479963 6.430418 -2.878900 13.620412 -7.426045 -0.087000 7.294598 -72.410817 6.456685 -54.634700 -113.071261 -57.680661 0.000001 0.000024 -0.000003 -0.029173 3.652301 -1.990582 -0.000002 -0.000019 -3.011621 -5.000164 -7.999909 0.000016 -10.779884 72.569380 13.355328 -48.421004 112.633303 51.411162 0.000000 0.000014 -0.000002 -0.023560 -3.636431 1.990876 0.000004 0.000008 3.011610 -5.000174 7.999920 -0.000005 1.574121 -176.867188 4.764589 -179.999991 0.000005 -1.150994 173.645047 -3.464634 -0.412613 0.000003 0.000002 0.059173 68.234601 6.892375 2.170152 25.456965 -7.355627 0.000005 0.376032 178.317046 -0.358614 -0.000005 -0.000004 -1.146980 -11.033115 1.784164 0.487141 0.000001 0.000002 -0.180087 70.135155 -6.866484 -2.120196 25.456945 7.355612 0.000000 
51.825901 -28.629528 84.615372 -7.240109 0.204923 -2.026137 -0.282123 -0.377134 0.086754 3.439157 -0.751752 0.163207 5.084297 -0.749720 0.181328 49.481664 6.424082 -2.884245 13.615578 -7.426409 -0.093273 7.267628 -72.413215 6.426951 -54.699293 -113.099463 -57.750274 -0.000001 0.000024 -0.000004 -0.029172 3.652301 -1.990581 -0.000002 -0.000020 -3.011620 -5.000165 -7.999909 0.000017 -10.748304 72.562154 13.320268 -48.457207 112.658875 51.459420 -0.000000 0.000014 -0.000001 -0.023560 -3.636430 1.990875 0.000003 0.000007 3.011610 -5.000172 7.999920 -0.000004 1.568350 -176.871177 4.760143 -179.999991 0.000005 -1.150995 173.664827 -3.464766 -0.411419 0.000003 0.000002 0.059175 68.223659 6.892365 2.170033 25.456964 -7.355628 0.000006 0.355855 178.312033 -0.360341 -0.000006 -0.000005 -1.146930 -11.043929 1.785178 0.487133 0.000002 0.000002 -0.180068 70.143017 -6.866501 -2.120213 25.456948 7.355612 0.000000 
